<?xml version="1.0" standalone="no"?>
<!DOCTYPE svg PUBLIC "-//W3C//DTD SVG 20010904//EN"
 "http://www.w3.org/TR/2001/REC-SVG-20010904/DTD/svg10.dtd">
<svg version="1.0" xmlns="http://www.w3.org/2000/svg"
 width="260.000000pt" height="260.000000pt" viewBox="0 0 260.000000 260.000000"
 preserveAspectRatio="xMidYMid meet">
<metadata>
Created by potrace 1.14, written by Peter Selinger 2001-2017
</metadata>
<g transform="translate(0.000000,260.000000) scale(0.100000,-0.100000)"
fill="#000000" stroke="none">
<path d="M1228 2595 c-2 -2 -23 -5 -48 -8 -61 -7 -102 -18 -117 -30 -7 -5 -13
-7 -13 -4 0 3 -24 -5 -53 -18 -41 -18 -80 -25 -163 -29 -161 -10 -344 -24
-399 -31 -16 -2 -50 -6 -75 -9 -25 -3 -68 -10 -95 -16 -28 -6 -61 -12 -75 -14
-26 -5 -30 -5 -98 -25 -74 -21 -71 1 -70 -536 1 -335 5 -512 15 -585 23 -184
98 -387 197 -534 25 -38 46 -70 46 -72 0 -13 176 -193 249 -254 23 -19 48 -40
54 -45 7 -6 35 -26 62 -45 28 -19 52 -38 55 -41 13 -16 225 -137 333 -190 67
-33 134 -67 150 -75 15 -8 27 -13 27 -10 0 3 11 -1 25 -8 40 -21 115 -11 196
24 396 174 666 359 862 592 26 31 47 61 47 67 0 6 3 11 8 11 17 0 104 168 142
278 17 48 31 88 30 90 -1 1 3 26 9 55 14 69 18 97 37 282 3 22 6 246 8 498 l3
458 -26 19 c-43 30 -203 65 -386 84 -22 3 -62 7 -90 10 -70 8 -191 16 -319 22
-61 3 -115 8 -120 13 -21 15 -122 50 -181 62 -52 10 -220 20 -227 14z"/>
</g>
</svg>
