<?xml version="1.0" standalone="no"?>
<!DOCTYPE svg PUBLIC "-//W3C//DTD SVG 20010904//EN"
 "http://www.w3.org/TR/2001/REC-SVG-20010904/DTD/svg10.dtd">
<svg version="1.0" xmlns="http://www.w3.org/2000/svg"
 width="371.000000pt" height="371.000000pt" viewBox="0 0 371.000000 371.000000"
 preserveAspectRatio="xMidYMid meet">
<metadata>
Created by potrace 1.14, written by Peter Selinger 2001-2017
</metadata>
<g transform="translate(0.000000,371.000000) scale(0.100000,-0.100000)"
fill="#000000" stroke="none">
<path d="M730 3666 c-84 -21 -139 -65 -191 -151 l-24 -40 0 -1615 0 -1615 23
-45 c46 -88 104 -133 201 -156 76 -18 2198 -14 2253 4 93 31 182 136 193 226
3 28 5 760 3 1626 l-3 1575 -27 45 c-37 62 -84 105 -143 132 l-50 23 -1095 1
c-800 1 -1107 -1 -1140 -10z"/>
</g>
</svg>
