<?xml version="1.0" standalone="no"?>
<!DOCTYPE svg PUBLIC "-//W3C//DTD SVG 20010904//EN"
 "http://www.w3.org/TR/2001/REC-SVG-20010904/DTD/svg10.dtd">
<svg version="1.0" xmlns="http://www.w3.org/2000/svg"
 width="216.000000pt" height="195.000000pt" viewBox="0 0 216.000000 195.000000"
 preserveAspectRatio="xMidYMid meet">

<g transform="translate(0.000000,195.000000) scale(0.100000,-0.100000)"
fill="#000000" stroke="none">
<path d="M1166 1788 c-35 -41 -76 -143 -76 -192 0 -11 -4 -27 -8 -34 -13 -19
-57 30 -78 86 -22 59 -20 57 -39 42 -29 -24 -57 -93 -69 -167 l-11 -74 -37 56
-36 55 -57 -107 c-31 -60 -60 -112 -65 -116 -4 -5 -22 17 -40 47 -21 38 -38
56 -51 56 -28 0 -35 -27 -15 -60 9 -16 16 -32 16 -37 0 -9 -170 -113 -186
-113 -5 0 -19 16 -32 35 -19 30 -25 34 -42 25 -11 -6 -20 -16 -20 -23 1 -7 36
-69 78 -140 l78 -127 -61 -63 c-155 -159 -185 -371 -75 -537 16 -24 28 -45 26
-47 -7 -8 -174 21 -193 33 -38 23 -71 18 -88 -16 -33 -64 -9 -127 45 -115 21
5 78 -15 235 -81 l208 -88 37 21 c35 19 41 19 131 5 135 -20 532 -20 668 1 90
13 106 14 118 1 31 -31 58 -25 262 61 152 64 212 84 232 80 53 -12 77 51 44
115 -12 23 -23 30 -44 30 -16 0 -34 -6 -40 -14 -6 -7 -41 -16 -76 -20 -36 -4
-80 -9 -98 -13 l-32 -6 20 29 c11 16 32 54 47 84 l27 55 21 -48 c18 -41 24
-47 43 -42 87 26 155 85 178 153 11 33 10 35 -47 94 -71 72 -162 145 -228 183
-26 16 -69 50 -94 77 -25 27 -67 63 -94 80 -32 21 -48 38 -48 52 0 25 95 110
111 100 21 -12 39 -73 39 -129 0 -32 4 -55 10 -55 14 0 60 98 60 126 0 32 -21
86 -47 120 l-24 32 51 73 c49 71 60 99 40 99 -6 0 -69 -57 -140 -126 -108
-106 -131 -123 -136 -108 -11 31 -48 124 -87 214 -19 47 -38 93 -41 103 -12
38 -35 -6 -52 -98 l-7 -40 -17 55 c-9 30 -42 105 -74 165 -45 87 -58 123 -63
173 -3 34 -9 62 -14 62 -4 0 -24 -19 -43 -42z m124 -414 c48 -19 50 -28 10
-44 -26 -11 -36 -9 -75 9 -49 23 -135 28 -182 10 -21 -8 -25 -7 -17 1 39 39
192 53 264 24z m153 -49 c60 -58 62 -69 19 -97 -73 -48 -145 -59 -226 -35 -30
9 -41 19 -47 39 -6 25 -4 28 29 39 49 16 149 66 157 79 11 18 31 11 68 -25z
m-393 -14 c-13 -25 -13 -87 0 -110 8 -16 4 -19 -37 -25 -76 -10 -76 -10 -70
30 8 47 30 80 70 104 40 25 50 25 37 1z m-402 -52 c4 -41 -20 -71 -93 -115
l-70 -43 -22 37 -22 36 42 26 c23 14 65 40 92 57 57 36 69 36 73 2z m517 -34
c0 -23 -5 -31 -21 -33 -27 -4 -47 21 -39 48 5 16 14 20 33 18 23 -2 27 -8 27
-33z m-105 -74 c0 -12 -155 -53 -183 -49 -20 3 -18 6 13 23 19 11 60 22 90 26
30 3 61 7 68 8 6 0 12 -3 12 -8z m140 -17 c-6 -14 -10 -40 -11 -57 l-1 -32
-13 30 c-8 17 -14 42 -15 58 0 22 4 27 25 27 22 0 24 -2 15 -26z m180 -11 c6
-21 13 -56 16 -79 l6 -41 -53 -11 c-30 -6 -61 -13 -70 -17 -12 -5 -20 4 -33
35 -20 50 -20 71 -2 115 15 34 17 35 70 35 55 0 55 0 66 -37z m-309 -17 c-6
-8 -26 -20 -44 -27 l-32 -14 30 -5 30 -6 -40 -22 -40 -21 40 -1 c55 0 30 -23
-27 -24 -40 -1 -43 1 -40 24 7 50 26 72 77 90 28 9 52 18 54 19 2 0 -2 -5 -8
-13z m69 -26 c16 -59 2 -101 -41 -123 -25 -12 -46 -15 -70 -10 l-33 6 34 12
c31 10 38 20 64 83 16 40 30 72 32 72 2 0 8 -18 14 -40z m-530 15 c0 -8 -18
-26 -40 -40 -46 -29 -50 -30 -50 -11 0 8 19 26 43 40 50 30 47 29 47 11z m-36
-110 c-4 -8 -8 -15 -10 -15 -2 0 -4 7 -4 15 0 8 4 15 10 15 5 0 7 -7 4 -15z
m846 -23 c0 -10 -10 -28 -23 -40 l-24 -22 -11 25 c-6 14 -16 25 -22 25 -22 0
-8 19 18 23 55 8 62 7 62 -11z m79 -36 c-1 -28 -17 -68 -18 -45 -1 9 -4 31 -7
48 -6 26 -4 30 10 25 9 -3 16 -16 15 -28z m176 8 c29 -26 29 -26 5 -20 -14 3
-28 6 -31 6 -4 0 -9 9 -12 20 -7 26 2 25 38 -6z m-1161 0 c4 -11 -10 -34 -43
-70 -72 -78 -95 -132 -99 -231 -4 -71 -1 -89 21 -137 14 -31 50 -81 79 -112
l53 -56 -40 7 c-50 8 -86 46 -129 135 -28 58 -31 75 -31 155 0 82 3 97 32 156
30 61 120 169 141 169 6 0 13 -7 16 -16z m646 -4 c0 -5 -16 -15 -36 -22 l-36
-13 6 -56 c4 -44 2 -58 -8 -62 -18 -7 -26 14 -26 69 l0 44 -82 0 c-84 0 -126
11 -93 24 9 3 53 6 98 7 45 0 100 6 122 13 41 13 55 12 55 -4z m178 -2 c17
-17 15 -54 -4 -72 -21 -22 -31 -20 -49 8 -30 45 16 101 53 64z m93 -41 c-16
-16 -26 0 -10 19 9 11 15 12 17 4 2 -6 -1 -17 -7 -23z m-740 -16 c20 -21 29
-39 29 -62 0 -42 -51 -169 -68 -169 -7 0 -29 8 -50 19 -20 10 -43 16 -49 14
-7 -3 -23 3 -35 11 -28 20 -38 20 -38 2 0 -8 14 -24 31 -36 44 -32 26 -38 -21
-6 -45 30 -44 27 -28 61 14 31 15 31 60 0 l38 -25 30 60 c36 71 38 112 8 140
l-22 20 43 0 c34 0 49 -6 72 -29z m991 8 c29 -6 83 -27 120 -46 68 -36 218
-155 218 -174 0 -14 -99 -111 -109 -107 -5 2 -24 23 -43 48 -40 53 -94 92
-122 88 -11 -2 -32 9 -49 26 -28 29 -29 30 -13 58 20 33 12 54 -36 92 -38 30
-37 30 34 15z m-480 -71 c-4 -32 -7 -33 -46 -1 -23 17 -36 37 -36 51 l0 23 43
-25 c31 -20 41 -32 39 -48z m-200 36 c33 -15 55 -40 45 -51 -2 -2 -26 7 -53
19 -32 14 -80 24 -139 28 -49 3 -83 9 -75 12 8 4 22 9 30 12 29 11 156 -2 192
-20z m-478 -50 c-20 -58 -20 -58 -34 -49 -7 4 -1 23 17 55 15 27 29 48 30 46
2 -1 -4 -25 -13 -52z m1139 13 c3 -8 1 -20 -4 -28 -6 -10 -9 -7 -9 14 0 29 5
35 13 14z m-655 -45 c87 -87 83 -233 -11 -436 l-41 -88 -54 5 c-30 3 -56 8
-59 10 -2 3 19 45 47 93 108 189 124 297 65 437 -12 29 13 19 53 -21z m-312
-197 c-46 -120 -87 -220 -92 -222 -5 -1 -15 1 -22 5 -9 7 -6 24 16 78 76 180
169 370 178 361 2 -2 -34 -102 -80 -222z m437 191 c7 -17 -18 -40 -33 -31 -5
3 -10 15 -10 26 0 23 35 27 43 5z m127 -56 l55 -6 -38 -8 c-46 -10 -119 3
-125 23 -4 11 2 12 24 6 16 -5 54 -11 84 -15z m308 -3 c5 -24 -15 -21 -21 4
-3 13 -1 19 6 16 7 -2 13 -11 15 -20z m116 -19 c7 -12 6 -21 -3 -32 -18 -22
-31 -20 -31 4 0 11 -5 20 -11 20 -8 0 -7 5 1 15 15 18 29 16 44 -7z m-499 -48
l35 0 0 -92 c0 -95 -13 -203 -31 -270 -9 -36 -12 -38 -53 -38 l-42 0 22 68
c20 61 41 158 59 264 5 34 3 38 -25 53 -16 8 -30 17 -30 19 0 3 -3 12 -7 22
-5 14 -2 13 15 -4 14 -14 34 -22 57 -22z m418 31 c13 -5 27 -20 30 -32 9 -32
0 -36 -13 -7 -7 14 -24 30 -38 35 -15 6 -22 11 -15 12 6 1 23 -3 36 -8z
m-1161 -62 c-16 -37 -21 -41 -27 -26 -10 25 22 94 36 80 8 -8 5 -24 -9 -54z
m1295 1 c-11 -95 -60 -174 -144 -231 -37 -26 -43 -28 -34 -11 6 12 15 23 20
26 5 3 21 32 35 63 15 32 31 66 37 75 5 10 9 27 9 38 0 21 55 90 72 90 7 0 9
-18 5 -50z m-438 -77 c12 -55 21 -123 21 -150 -1 -42 -6 -54 -42 -93 -22 -25
-38 -37 -34 -27 17 50 27 169 24 272 -1 63 0 111 4 107 4 -4 16 -53 27 -109z
m283 83 c11 -20 10 -20 -9 -3 -11 9 -25 17 -31 17 -7 0 -12 4 -12 9 0 17 40
-1 52 -23z m243 -59 c-22 -101 -116 -219 -227 -285 -66 -39 -165 -75 -275
-100 -104 -23 -462 -23 -603 0 -93 16 -96 15 -117 -4 -26 -24 -9 -29 -248 63
-104 39 -202 72 -217 72 -22 0 -24 2 -12 14 17 17 19 53 2 53 -6 0 -8 3 -5 7
4 3 15 -1 24 -9 12 -11 88 -27 218 -48 250 -39 245 -38 255 -65 10 -26 71 -38
286 -56 409 -33 738 81 844 294 16 33 30 73 30 88 0 15 3 34 6 43 5 13 9 12
26 -9 15 -19 18 -33 13 -58z m239 64 c8 -12 -46 -84 -82 -110 -35 -25 -48 -26
-55 -7 -4 9 9 24 33 40 22 14 49 39 61 56 24 31 34 36 43 21z m-1481 -22 c23
-12 43 -23 45 -24 3 -3 -75 -176 -83 -184 -6 -6 -63 48 -76 71 -7 13 0 36 26
88 19 38 38 70 41 70 2 0 24 -10 47 -21z m961 -17 c2 -4 -12 -6 -32 -4 -56 5
-62 10 -15 11 23 1 44 -3 47 -7z m-39 -52 c4 -6 -10 -10 -34 -10 -30 0 -44 -6
-55 -22 -9 -12 -16 -18 -16 -12 0 19 25 43 50 47 44 7 49 7 55 -3z m-106 -169
c-40 -50 -77 -91 -81 -91 -13 0 -2 15 75 108 38 45 72 81 74 78 3 -2 -28 -45
-68 -95z m111 33 c0 -50 -20 -81 -61 -93 -23 -7 -43 -11 -45 -9 -2 3 17 24 41
48 34 33 45 52 45 75 0 23 3 26 10 15 5 -8 10 -24 10 -36z m-392 -9 c2 -2 0
-14 -4 -29 -5 -22 -11 -26 -45 -26 -42 0 -44 4 -29 44 8 22 13 25 42 19 18 -3
34 -7 36 -8z m912 -34 c15 -29 13 -54 -5 -48 -8 4 -40 -3 -71 -13 -72 -25 -82
-24 -25 1 24 11 42 21 40 24 -3 2 -47 -7 -99 -20 -52 -13 -120 -27 -150 -31
l-55 -7 32 27 c27 22 53 30 160 47 70 12 132 25 138 30 14 14 23 11 35 -10z
m-160 -91 c-8 -5 -19 -10 -25 -10 -5 0 -3 5 5 10 8 5 20 10 25 10 6 0 3 -5 -5
-10z m-260 -60 c0 -25 3 -25 75 0 32 11 60 19 62 17 5 -5 -167 -69 -176 -65
-11 4 16 68 29 68 6 0 10 -9 10 -20z"/>
<path d="M1400 1315 c0 -31 -33 -64 -78 -81 -64 -23 -73 -34 -31 -34 46 0 132
26 158 48 l21 17 -26 33 c-28 35 -44 41 -44 17z"/>
<path d="M1123 1234 c-9 -23 11 -38 26 -20 13 16 7 36 -10 36 -5 0 -12 -7 -16
-16z"/>
<path d="M1342 1089 c-12 -19 -31 -46 -44 -61 -26 -33 -21 -42 16 -28 15 5 38
10 51 10 26 0 26 10 5 89 -6 24 -6 24 -28 -10z"/>
<path d="M1716 789 l-37 -40 26 -25 c18 -16 33 -23 46 -19 26 9 80 -26 129
-83 l41 -47 34 37 c19 21 35 44 35 52 0 31 -186 166 -228 166 -5 0 -26 -18
-46 -41z"/>
<path d="M181 306 c2 -2 89 -36 194 -76 l189 -72 18 22 c37 46 28 50 -192 93
-177 35 -218 42 -209 33z"/>
</g>
</svg>
